<svg width="8" height="8" viewBox="0 0 8 8" fill="none" xmlns="http://www.w3.org/2000/svg">
<path d="M6.73054 7.85316L7.85316 6.73054C8.04895 6.53476 8.04895 6.22026 7.85316 6.02447L5.82869 4L7.85316 1.97553C8.04895 1.77974 8.04895 1.46524 7.85316 1.26946L6.73054 0.146837C6.53476 -0.0489456 6.22026 -0.0489456 6.02447 0.146837L4 2.17131L1.97553 0.146837C1.77974 -0.0489456 1.46524 -0.0489456 1.26946 0.146837L0.146837 1.26946C-0.0489456 1.46524 -0.0489456 1.77974 0.146837 1.97553L2.17131 4L0.146837 6.02447C-0.0489456 6.22026 -0.0489456 6.53476 0.146837 6.73054L1.26946 7.85316C1.46524 8.04895 1.77974 8.04895 1.97553 7.85316L4 5.82869L6.02447 7.85316C6.21817 8.04686 6.53476 8.04686 6.73054 7.85316Z" fill="#6B7D99"/>
</svg>
