<?xml version="1.0" encoding="utf-8"?>
<!-- Svg Vector Icons : http://www.onlinewebfonts.com/icon -->
<!DOCTYPE svg PUBLIC "-//W3C//DTD SVG 1.1//EN" "http://www.w3.org/Graphics/SVG/1.1/DTD/svg11.dtd">
<svg version="1.1" xmlns="http://www.w3.org/2000/svg" xmlns:xlink="http://www.w3.org/1999/xlink" x="0px" y="0px" viewBox="0 0 1000 1000" enable-background="new 0 0 1000 1000" xml:space="preserve">
<metadata> Svg Vector Icons : http://www.onlinewebfonts.com/icon </metadata>
<g><path d="M500,10c-192.1,0-347.9,155.8-347.9,347.9c0,78.5,26,151,69.9,209.2l278,422.5l0.2,0.4l0.3-0.4l283.4-430.7c40.3-56.7,64-126.1,64-201C847.9,165.8,692.1,10,500,10z"/><path d="M495.5,128.3c-124.2,0-225.1,101-225.1,225.2s100.9,225.2,225.1,225.2c124.2,0,225.2-101,225.2-225.2S619.7,128.3,495.5,128.3z M495.5,559.1C382,559.1,290,467,290,353.5c0-113.6,92-205.6,205.5-205.6c113.6,0,205.6,92,205.6,205.6C701.1,467.1,609.1,559.1,495.5,559.1z"/></g>
</svg>